<?xml version="1.0" encoding="UTF-8" standalone="no"?>
<!-- Created with Inkscape (http://www.inkscape.org/) -->

<svg
   width="16"
   height="16"
   viewBox="0 0 4.2333333 4.2333333"
   version="1.1"
   id="svg1"
   inkscape:version="1.4.3 (0d15f75042, 2025-12-25)"
   sodipodi:docname="brain_empty.svg"
   xmlns:inkscape="http://www.inkscape.org/namespaces/inkscape"
   xmlns:sodipodi="http://sodipodi.sourceforge.net/DTD/sodipodi-0.dtd"
   xmlns="http://www.w3.org/2000/svg"
   xmlns:svg="http://www.w3.org/2000/svg">
  <sodipodi:namedview
     id="namedview1"
     pagecolor="#444444"
     bordercolor="#000000"
     borderopacity="0.25"
     inkscape:showpageshadow="2"
     inkscape:pageopacity="0.0"
     inkscape:pagecheckerboard="0"
     inkscape:deskcolor="#d1d1d1"
     inkscape:document-units="mm"
     inkscape:zoom="30.51876"
     inkscape:cx="11.533889"
     inkscape:cy="9.0600012"
     inkscape:window-width="1920"
     inkscape:window-height="1008"
     inkscape:window-x="0"
     inkscape:window-y="0"
     inkscape:window-maximized="1"
     inkscape:current-layer="layer1" />
  <defs
     id="defs1" />
  <g
     inkscape:label="Layer 1"
     inkscape:groupmode="layer"
     id="layer1">
    <path
       id="path1-0-4"
       style="display:none;fill:#ffffff;fill-opacity:1;stroke:none;stroke-width:0.234;stroke-linecap:round;stroke-linejoin:round;stroke-dasharray:none;stroke-opacity:1"
       d="M 1.2877513,0.78584909 C 0.86979253,0.4367898 0.26847388,0.95499868 0.78470081,1.4311588 0.18816322,1.01065 -0.17891097,2.398887 0.74753611,2.3257406 -0.0428734,2.5629599 0.31888148,3.5331553 1.062426,3.1833447 0.53822701,3.8415633 1.8716608,4.3510068 1.884579,3.6265365 1.8824834,2.6289778 1.878163,1.6315076 1.8788946,0.63395436 1.8575377,0.02158181 1.0270297,0.20736553 1.2877513,0.78584909 Z"
       sodipodi:nodetypes="ccccccc" />
    <path
       id="path1-0-4-9"
       style="display:none;fill:#ffffff;fill-opacity:1;stroke:none;stroke-width:0.234;stroke-linecap:round;stroke-linejoin:round;stroke-dasharray:none;stroke-opacity:1"
       d="M 2.9849382,0.75400819 C 3.402897,0.40494886 4.0042156,0.92315769 3.4879887,1.3993179 4.0845263,0.97880909 4.4516005,2.3670461 3.5251537,2.2938997 4.3155632,2.531119 3.9538083,3.5013144 3.2102638,3.1515038 3.7344628,3.8097224 2.401029,4.3191659 2.3881108,3.5946956 c 0.0021,-0.9975587 0.00642,-1.9950289 0.00568,-2.99258218 0.021357,-0.61237255 0.8518649,-0.42658883 0.5911433,0.15189477 z"
       sodipodi:nodetypes="ccccccc" />
    <path
       style="fill:none;fill-opacity:1;stroke:#ffffff;stroke-width:0.2;stroke-linecap:round;stroke-linejoin:round;stroke-dasharray:none;stroke-opacity:1"
       d="M 1.7372711,0.24373023 C 1.5037822,0.24856753 1.2780141,0.45427723 1.4445139,0.78712048 0.97000119,0.43007347 0.28758941,0.96027269 0.87366687,1.447329 0.19641189,1.0171975 -0.22037905,2.4371382 0.83142541,2.3623179 -0.06593423,2.6049657 0.34456472,3.5970639 1.1887181,3.2392483 0.59358979,3.9125293 2.107472,4.4338271 2.122138,3.6927783 2.119759,2.6723919 2.114854,1.6520961 2.1156846,0.6317151 2.1050767,0.3576713 1.9188734,0.23996786 1.7372711,0.24373023 Z"
       id="path1" />
    <path
       style="fill:none;fill-opacity:1;stroke:#ffffff;stroke-width:0.2;stroke-linecap:round;stroke-linejoin:round;stroke-dasharray:none;stroke-opacity:1"
       d="M 2.5083243,0.21095766 C 2.326722,0.2071953 2.1405188,0.32489874 2.1299107,0.59894253 2.1307509,1.6193236 2.1258413,2.6396194 2.1234573,3.6600059 2.1381234,4.4010546 3.6520056,3.8802853 3.0568773,3.2070044 3.9010306,3.5648199 4.3115296,2.5721932 3.4141701,2.3295454 4.4659743,2.4043657 4.0491836,0.98442491 3.3719286,1.4145566 3.9580059,0.92749999 3.2755942,0.39730086 2.8010815,0.75434792 2.9675813,0.42150464 2.7418132,0.21579498 2.5083243,0.21095766 Z"
       id="path1-0-4-92" />
    <path
       style="fill:none;fill-opacity:1;stroke:#ffffff;stroke-width:0.2;stroke-linecap:round;stroke-linejoin:round;stroke-dasharray:none;stroke-opacity:1"
       d="M 1.528676,1.9946696 2.0118368,2.1542124"
       id="path2"
       sodipodi:nodetypes="cc" />
    <path
       style="fill:none;fill-opacity:1;stroke:#ffffff;stroke-width:0.2;stroke-linecap:round;stroke-linejoin:round;stroke-dasharray:none;stroke-opacity:1"
       d="M 2.2069899,1.6413174 2.69528,1.4913703"
       id="path2-1"
       sodipodi:nodetypes="cc" />
    <path
       style="fill:none;fill-opacity:1;stroke:#ffffff;stroke-width:0.2;stroke-linecap:round;stroke-linejoin:round;stroke-dasharray:none;stroke-opacity:1"
       d="m 2.2278691,2.5317376 0.3982961,0.084844"
       id="path2-3"
       sodipodi:nodetypes="cc" />
  </g>
</svg>
